<mxfile host="app.diagrams.net" modified="2021-09-13T05:07:42.189Z" agent="5.0 (Macintosh; Intel Mac OS X 10_15_7) AppleWebKit/537.36 (KHTML, like Gecko) Chrome/93.0.4577.63 Safari/537.36" etag="Wcxlb5ePPy5T5QhUbxY5" version="15.1.4" type="github">
  <diagram id="C5RBs43oDa-KdzZeNtuy" name="Page-1">
    <mxGraphModel dx="1426" dy="801" grid="1" gridSize="10" guides="1" tooltips="1" connect="1" arrows="1" fold="1" page="1" pageScale="1" pageWidth="827" pageHeight="1169" math="0" shadow="0">
      <root>
        <mxCell id="WIyWlLk6GJQsqaUBKTNV-0" />
        <mxCell id="WIyWlLk6GJQsqaUBKTNV-1" parent="WIyWlLk6GJQsqaUBKTNV-0" />
        <mxCell id="WIyWlLk6GJQsqaUBKTNV-2" value="" style="rounded=0;html=1;jettySize=auto;orthogonalLoop=1;fontSize=11;endArrow=block;endFill=0;endSize=8;strokeWidth=1;shadow=0;labelBackgroundColor=none;edgeStyle=orthogonalEdgeStyle;" parent="WIyWlLk6GJQsqaUBKTNV-1" source="WIyWlLk6GJQsqaUBKTNV-3" target="WIyWlLk6GJQsqaUBKTNV-6" edge="1">
          <mxGeometry relative="1" as="geometry" />
        </mxCell>
        <mxCell id="WIyWlLk6GJQsqaUBKTNV-3" value="查询部门配置" style="rounded=1;whiteSpace=wrap;html=1;fontSize=12;glass=0;strokeWidth=1;shadow=0;" parent="WIyWlLk6GJQsqaUBKTNV-1" vertex="1">
          <mxGeometry x="210" y="120" width="120" height="50" as="geometry" />
        </mxCell>
        <mxCell id="WIyWlLk6GJQsqaUBKTNV-5" value="No" style="edgeStyle=orthogonalEdgeStyle;rounded=0;html=1;jettySize=auto;orthogonalLoop=1;fontSize=11;endArrow=block;endFill=0;endSize=8;strokeWidth=1;shadow=0;labelBackgroundColor=none;" parent="WIyWlLk6GJQsqaUBKTNV-1" source="WIyWlLk6GJQsqaUBKTNV-6" target="WIyWlLk6GJQsqaUBKTNV-7" edge="1">
          <mxGeometry y="10" relative="1" as="geometry">
            <mxPoint as="offset" />
          </mxGeometry>
        </mxCell>
        <mxCell id="95srwG0zsuO4FYz2OOs8-27" style="edgeStyle=orthogonalEdgeStyle;rounded=0;orthogonalLoop=1;jettySize=auto;html=1;exitX=1;exitY=0.5;exitDx=0;exitDy=0;entryX=0;entryY=0.5;entryDx=0;entryDy=0;" parent="WIyWlLk6GJQsqaUBKTNV-1" source="WIyWlLk6GJQsqaUBKTNV-6" target="95srwG0zsuO4FYz2OOs8-0" edge="1">
          <mxGeometry relative="1" as="geometry" />
        </mxCell>
        <mxCell id="95srwG0zsuO4FYz2OOs8-29" value="Yes" style="edgeLabel;html=1;align=center;verticalAlign=middle;resizable=0;points=[];" parent="95srwG0zsuO4FYz2OOs8-27" vertex="1" connectable="0">
          <mxGeometry x="0.1241" relative="1" as="geometry">
            <mxPoint x="-12" y="-10" as="offset" />
          </mxGeometry>
        </mxCell>
        <mxCell id="WIyWlLk6GJQsqaUBKTNV-6" value="是否有配置部门" style="rhombus;whiteSpace=wrap;html=1;shadow=0;fontFamily=Helvetica;fontSize=12;align=center;strokeWidth=1;spacing=6;spacingTop=-4;" parent="WIyWlLk6GJQsqaUBKTNV-1" vertex="1">
          <mxGeometry x="210" y="230" width="120" height="80" as="geometry" />
        </mxCell>
        <mxCell id="WIyWlLk6GJQsqaUBKTNV-7" value="结束流程" style="rounded=1;whiteSpace=wrap;html=1;fontSize=12;glass=0;strokeWidth=1;shadow=0;" parent="WIyWlLk6GJQsqaUBKTNV-1" vertex="1">
          <mxGeometry x="210" y="380" width="120" height="50" as="geometry" />
        </mxCell>
        <mxCell id="WIyWlLk6GJQsqaUBKTNV-8" value="" style="rounded=0;html=1;jettySize=auto;orthogonalLoop=1;fontSize=11;endArrow=block;endFill=0;endSize=8;strokeWidth=1;shadow=0;labelBackgroundColor=none;edgeStyle=orthogonalEdgeStyle;exitX=1;exitY=0.5;exitDx=0;exitDy=0;entryX=0;entryY=0.5;entryDx=0;entryDy=0;" parent="WIyWlLk6GJQsqaUBKTNV-1" source="95srwG0zsuO4FYz2OOs8-0" target="95srwG0zsuO4FYz2OOs8-11" edge="1">
          <mxGeometry x="0.3333" y="20" relative="1" as="geometry">
            <mxPoint as="offset" />
            <mxPoint x="775" y="290" as="sourcePoint" />
            <mxPoint x="775" y="350" as="targetPoint" />
          </mxGeometry>
        </mxCell>
        <mxCell id="95srwG0zsuO4FYz2OOs8-0" value="分页查询部门下的人员&lt;br&gt;分页条数：500" style="rounded=1;whiteSpace=wrap;html=1;" parent="WIyWlLk6GJQsqaUBKTNV-1" vertex="1">
          <mxGeometry x="390" y="240" width="140" height="60" as="geometry" />
        </mxCell>
        <mxCell id="95srwG0zsuO4FYz2OOs8-77" style="edgeStyle=orthogonalEdgeStyle;rounded=0;orthogonalLoop=1;jettySize=auto;html=1;exitX=1;exitY=0.5;exitDx=0;exitDy=0;" parent="WIyWlLk6GJQsqaUBKTNV-1" source="95srwG0zsuO4FYz2OOs8-11" target="95srwG0zsuO4FYz2OOs8-75" edge="1">
          <mxGeometry relative="1" as="geometry" />
        </mxCell>
        <mxCell id="95srwG0zsuO4FYz2OOs8-11" value="循环用户ID处理" style="rounded=1;whiteSpace=wrap;html=1;" parent="WIyWlLk6GJQsqaUBKTNV-1" vertex="1">
          <mxGeometry x="590" y="240" width="120" height="60" as="geometry" />
        </mxCell>
        <mxCell id="95srwG0zsuO4FYz2OOs8-23" value="" style="edgeStyle=orthogonalEdgeStyle;rounded=0;orthogonalLoop=1;jettySize=auto;html=1;exitX=0.5;exitY=1;exitDx=0;exitDy=0;" parent="WIyWlLk6GJQsqaUBKTNV-1" source="95srwG0zsuO4FYz2OOs8-15" target="95srwG0zsuO4FYz2OOs8-22" edge="1">
          <mxGeometry relative="1" as="geometry" />
        </mxCell>
        <mxCell id="95srwG0zsuO4FYz2OOs8-32" value="Yes" style="edgeLabel;html=1;align=center;verticalAlign=middle;resizable=0;points=[];" parent="95srwG0zsuO4FYz2OOs8-23" vertex="1" connectable="0">
          <mxGeometry x="-0.0381" y="2" relative="1" as="geometry">
            <mxPoint x="-15" as="offset" />
          </mxGeometry>
        </mxCell>
        <mxCell id="95srwG0zsuO4FYz2OOs8-80" value="" style="edgeStyle=orthogonalEdgeStyle;rounded=0;orthogonalLoop=1;jettySize=auto;html=1;" parent="WIyWlLk6GJQsqaUBKTNV-1" source="95srwG0zsuO4FYz2OOs8-15" target="95srwG0zsuO4FYz2OOs8-79" edge="1">
          <mxGeometry relative="1" as="geometry" />
        </mxCell>
        <mxCell id="95srwG0zsuO4FYz2OOs8-112" value="No" style="edgeLabel;html=1;align=center;verticalAlign=middle;resizable=0;points=[];" parent="95srwG0zsuO4FYz2OOs8-80" vertex="1" connectable="0">
          <mxGeometry x="-0.12" relative="1" as="geometry">
            <mxPoint x="-2" y="-10" as="offset" />
          </mxGeometry>
        </mxCell>
        <mxCell id="95srwG0zsuO4FYz2OOs8-15" value="可兑换学分&lt;br&gt;&amp;nbsp;&amp;gt;= &lt;br&gt;设置比例" style="rhombus;whiteSpace=wrap;html=1;" parent="WIyWlLk6GJQsqaUBKTNV-1" vertex="1">
          <mxGeometry x="1020" y="380" width="110" height="100" as="geometry" />
        </mxCell>
        <mxCell id="95srwG0zsuO4FYz2OOs8-25" value="" style="edgeStyle=orthogonalEdgeStyle;rounded=0;orthogonalLoop=1;jettySize=auto;html=1;" parent="WIyWlLk6GJQsqaUBKTNV-1" source="95srwG0zsuO4FYz2OOs8-22" target="95srwG0zsuO4FYz2OOs8-24" edge="1">
          <mxGeometry relative="1" as="geometry" />
        </mxCell>
        <mxCell id="95srwG0zsuO4FYz2OOs8-22" value="计算兑换后的积分&lt;br&gt;调用产品接口添加等级积分" style="whiteSpace=wrap;html=1;" parent="WIyWlLk6GJQsqaUBKTNV-1" vertex="1">
          <mxGeometry x="990" y="540" width="170" height="60" as="geometry" />
        </mxCell>
        <mxCell id="95srwG0zsuO4FYz2OOs8-24" value="记录学分积分兑换明细表&lt;br&gt;更新兑换前兑换后学分&lt;br&gt;redis解锁，表示处理结束" style="whiteSpace=wrap;html=1;" parent="WIyWlLk6GJQsqaUBKTNV-1" vertex="1">
          <mxGeometry x="985" y="650" width="180" height="70" as="geometry" />
        </mxCell>
        <mxCell id="95srwG0zsuO4FYz2OOs8-42" value="&lt;div&gt;1、custom_yuexiu_dept_score_point_rate 部门学分积分兑换比例表&lt;/div&gt;&lt;div&gt;&lt;br&gt;&lt;/div&gt;&lt;div&gt;2、custom_yuexiu_user_score_exc 学员学分兑换表&lt;/div&gt;&lt;div&gt;&lt;br&gt;&lt;/div&gt;&lt;div&gt;3、custom_yuexiu_user_score_exc_detail 学员学分兑换明细表&lt;/div&gt;&lt;div&gt;&lt;br&gt;&lt;/div&gt;&lt;div&gt;4、查询一级部门下的所有用户ID表关联：core_department 、&amp;nbsp;core_userprofile&amp;nbsp;&lt;/div&gt;&lt;div&gt;&lt;br&gt;&lt;/div&gt;&lt;div&gt;5、学员当前学分记录表：&lt;span&gt;core_userstudystatistic&lt;/span&gt;&lt;/div&gt;&lt;div&gt;&lt;span&gt;&lt;br&gt;&lt;/span&gt;&lt;/div&gt;&lt;div&gt;&lt;span&gt;6、配置越秀orgid&lt;/span&gt;&lt;/div&gt;&lt;div&gt;&lt;span&gt;&lt;br&gt;&lt;/span&gt;&lt;/div&gt;&lt;div style=&quot;font-size: 11px&quot;&gt;&lt;span&gt;7、调用产品添加等级积分接口已有：&amp;nbsp;&lt;/span&gt;&lt;span style=&quot;background-color: rgb(255 , 255 , 255) ; font-size: 11px&quot;&gt;&lt;span style=&quot;font-family: &amp;#34;menlo&amp;#34; ; font-size: 11px&quot;&gt;QidaPointApiService.&lt;/span&gt;&lt;span style=&quot;font-family: &amp;#34;menlo&amp;#34; ; font-size: 11px&quot;&gt;addPoint&lt;/span&gt;&lt;/span&gt;&lt;/div&gt;&lt;div style=&quot;font-size: 11px&quot;&gt;&lt;span style=&quot;background-color: rgb(255 , 255 , 255) ; font-size: 11px&quot;&gt;&lt;span style=&quot;font-family: &amp;#34;menlo&amp;#34; ; font-size: 11px&quot;&gt;&lt;br&gt;&lt;/span&gt;&lt;/span&gt;&lt;/div&gt;&lt;div style=&quot;font-size: 11px&quot;&gt;&lt;span style=&quot;background-color: rgb(255 , 255 , 255) ; font-size: 11px&quot;&gt;&lt;span style=&quot;font-family: &amp;#34;menlo&amp;#34; ; font-size: 11px&quot;&gt;8、redis锁：UserCarPointsController.exportUserCarPoints&lt;/span&gt;&lt;/span&gt;&lt;/div&gt;" style="rounded=0;whiteSpace=wrap;html=1;fillColor=#ffffff;align=left;" parent="WIyWlLk6GJQsqaUBKTNV-1" vertex="1">
          <mxGeometry x="80" y="520" width="460" height="230" as="geometry" />
        </mxCell>
        <mxCell id="95srwG0zsuO4FYz2OOs8-45" style="edgeStyle=orthogonalEdgeStyle;rounded=0;orthogonalLoop=1;jettySize=auto;html=1;exitX=1;exitY=0.5;exitDx=0;exitDy=0;" parent="WIyWlLk6GJQsqaUBKTNV-1" source="95srwG0zsuO4FYz2OOs8-44" target="WIyWlLk6GJQsqaUBKTNV-3" edge="1">
          <mxGeometry relative="1" as="geometry" />
        </mxCell>
        <mxCell id="95srwG0zsuO4FYz2OOs8-44" value="晚间批量任务" style="rounded=0;whiteSpace=wrap;html=1;fillColor=#ffffff;align=center;" parent="WIyWlLk6GJQsqaUBKTNV-1" vertex="1">
          <mxGeometry x="60" y="30" width="120" height="40" as="geometry" />
        </mxCell>
        <mxCell id="95srwG0zsuO4FYz2OOs8-82" style="edgeStyle=orthogonalEdgeStyle;rounded=0;orthogonalLoop=1;jettySize=auto;html=1;exitX=0.5;exitY=1;exitDx=0;exitDy=0;" parent="WIyWlLk6GJQsqaUBKTNV-1" source="95srwG0zsuO4FYz2OOs8-46" target="95srwG0zsuO4FYz2OOs8-47" edge="1">
          <mxGeometry relative="1" as="geometry" />
        </mxCell>
        <mxCell id="95srwG0zsuO4FYz2OOs8-46" value="手动页面查询接口" style="rounded=1;whiteSpace=wrap;html=1;fillColor=#ffffff;align=center;" parent="WIyWlLk6GJQsqaUBKTNV-1" vertex="1">
          <mxGeometry x="160" y="910" width="130" height="40" as="geometry" />
        </mxCell>
        <mxCell id="95srwG0zsuO4FYz2OOs8-84" style="edgeStyle=orthogonalEdgeStyle;rounded=0;orthogonalLoop=1;jettySize=auto;html=1;exitX=1;exitY=0.5;exitDx=0;exitDy=0;" parent="WIyWlLk6GJQsqaUBKTNV-1" source="95srwG0zsuO4FYz2OOs8-47" target="95srwG0zsuO4FYz2OOs8-52" edge="1">
          <mxGeometry relative="1" as="geometry" />
        </mxCell>
        <mxCell id="95srwG0zsuO4FYz2OOs8-47" value="查询学员所在一级部门ID、名称" style="rounded=1;whiteSpace=wrap;html=1;fillColor=#ffffff;align=center;" parent="WIyWlLk6GJQsqaUBKTNV-1" vertex="1">
          <mxGeometry x="150" y="1010" width="150" height="60" as="geometry" />
        </mxCell>
        <mxCell id="95srwG0zsuO4FYz2OOs8-61" value="" style="edgeStyle=orthogonalEdgeStyle;rounded=0;orthogonalLoop=1;jettySize=auto;html=1;" parent="WIyWlLk6GJQsqaUBKTNV-1" source="95srwG0zsuO4FYz2OOs8-50" target="95srwG0zsuO4FYz2OOs8-60" edge="1">
          <mxGeometry relative="1" as="geometry" />
        </mxCell>
        <mxCell id="95srwG0zsuO4FYz2OOs8-88" value="No" style="edgeLabel;html=1;align=center;verticalAlign=middle;resizable=0;points=[];" parent="95srwG0zsuO4FYz2OOs8-61" vertex="1" connectable="0">
          <mxGeometry x="-0.1167" relative="1" as="geometry">
            <mxPoint x="-15" y="5" as="offset" />
          </mxGeometry>
        </mxCell>
        <mxCell id="95srwG0zsuO4FYz2OOs8-86" style="edgeStyle=orthogonalEdgeStyle;rounded=0;orthogonalLoop=1;jettySize=auto;html=1;exitX=1;exitY=0.5;exitDx=0;exitDy=0;" parent="WIyWlLk6GJQsqaUBKTNV-1" source="95srwG0zsuO4FYz2OOs8-50" target="95srwG0zsuO4FYz2OOs8-62" edge="1">
          <mxGeometry relative="1" as="geometry" />
        </mxCell>
        <mxCell id="95srwG0zsuO4FYz2OOs8-87" value="Yes" style="edgeLabel;html=1;align=center;verticalAlign=middle;resizable=0;points=[];" parent="95srwG0zsuO4FYz2OOs8-86" vertex="1" connectable="0">
          <mxGeometry x="-0.0667" y="3" relative="1" as="geometry">
            <mxPoint y="-7" as="offset" />
          </mxGeometry>
        </mxCell>
        <mxCell id="95srwG0zsuO4FYz2OOs8-50" value="是否配置？" style="rhombus;whiteSpace=wrap;html=1;fillColor=#ffffff;align=center;" parent="WIyWlLk6GJQsqaUBKTNV-1" vertex="1">
          <mxGeometry x="590" y="1000" width="90" height="80" as="geometry" />
        </mxCell>
        <mxCell id="95srwG0zsuO4FYz2OOs8-85" style="edgeStyle=orthogonalEdgeStyle;rounded=0;orthogonalLoop=1;jettySize=auto;html=1;exitX=1;exitY=0.5;exitDx=0;exitDy=0;entryX=0;entryY=0.5;entryDx=0;entryDy=0;" parent="WIyWlLk6GJQsqaUBKTNV-1" source="95srwG0zsuO4FYz2OOs8-52" target="95srwG0zsuO4FYz2OOs8-50" edge="1">
          <mxGeometry relative="1" as="geometry" />
        </mxCell>
        <mxCell id="95srwG0zsuO4FYz2OOs8-52" value="查询一级部门兑换比例" style="whiteSpace=wrap;html=1;" parent="WIyWlLk6GJQsqaUBKTNV-1" vertex="1">
          <mxGeometry x="380" y="1010" width="130" height="60" as="geometry" />
        </mxCell>
        <mxCell id="95srwG0zsuO4FYz2OOs8-60" value="&lt;span&gt;兑换部门、兑换比例、可兑换学分 返回空&lt;/span&gt;" style="whiteSpace=wrap;html=1;" parent="WIyWlLk6GJQsqaUBKTNV-1" vertex="1">
          <mxGeometry x="565" y="1160" width="140" height="60" as="geometry" />
        </mxCell>
        <mxCell id="95srwG0zsuO4FYz2OOs8-62" value="查询可兑换学分" style="whiteSpace=wrap;html=1;" parent="WIyWlLk6GJQsqaUBKTNV-1" vertex="1">
          <mxGeometry x="745" y="1010" width="120" height="60" as="geometry" />
        </mxCell>
        <mxCell id="95srwG0zsuO4FYz2OOs8-74" style="edgeStyle=orthogonalEdgeStyle;rounded=0;orthogonalLoop=1;jettySize=auto;html=1;exitX=0.5;exitY=1;exitDx=0;exitDy=0;" parent="WIyWlLk6GJQsqaUBKTNV-1" source="95srwG0zsuO4FYz2OOs8-68" target="95srwG0zsuO4FYz2OOs8-15" edge="1">
          <mxGeometry relative="1" as="geometry" />
        </mxCell>
        <mxCell id="95srwG0zsuO4FYz2OOs8-68" value="计算当前可兑换学分" style="whiteSpace=wrap;html=1;rounded=1;" parent="WIyWlLk6GJQsqaUBKTNV-1" vertex="1">
          <mxGeometry x="1000" y="240" width="150" height="60" as="geometry" />
        </mxCell>
        <mxCell id="95srwG0zsuO4FYz2OOs8-71" value="当前可兑换学分 = 当前学分 - 上次兑换时记录的总学分 + 上次兑换后剩余学分" style="text;html=1;strokeColor=none;fillColor=none;align=center;verticalAlign=middle;whiteSpace=wrap;rounded=0;" parent="WIyWlLk6GJQsqaUBKTNV-1" vertex="1">
          <mxGeometry x="970" y="210" width="450" height="30" as="geometry" />
        </mxCell>
        <mxCell id="95srwG0zsuO4FYz2OOs8-114" style="edgeStyle=orthogonalEdgeStyle;rounded=0;orthogonalLoop=1;jettySize=auto;html=1;exitX=1;exitY=0.5;exitDx=0;exitDy=0;" parent="WIyWlLk6GJQsqaUBKTNV-1" source="95srwG0zsuO4FYz2OOs8-75" target="95srwG0zsuO4FYz2OOs8-68" edge="1">
          <mxGeometry relative="1" as="geometry" />
        </mxCell>
        <mxCell id="95srwG0zsuO4FYz2OOs8-75" value="redis加锁" style="whiteSpace=wrap;html=1;rounded=1;" parent="WIyWlLk6GJQsqaUBKTNV-1" vertex="1">
          <mxGeometry x="790" y="240" width="120" height="60" as="geometry" />
        </mxCell>
        <mxCell id="95srwG0zsuO4FYz2OOs8-79" value="&lt;span&gt;解锁&lt;/span&gt;" style="whiteSpace=wrap;html=1;" parent="WIyWlLk6GJQsqaUBKTNV-1" vertex="1">
          <mxGeometry x="790" y="400" width="120" height="60" as="geometry" />
        </mxCell>
        <mxCell id="95srwG0zsuO4FYz2OOs8-83" value="当前可兑换学分 = 当前学分 - 上次兑换时记录的总学分 + 上次兑换后剩余学分" style="text;html=1;strokeColor=none;fillColor=none;align=center;verticalAlign=middle;whiteSpace=wrap;rounded=0;" parent="WIyWlLk6GJQsqaUBKTNV-1" vertex="1">
          <mxGeometry x="725" y="980" width="450" height="30" as="geometry" />
        </mxCell>
        <mxCell id="95srwG0zsuO4FYz2OOs8-113" style="edgeStyle=orthogonalEdgeStyle;rounded=0;orthogonalLoop=1;jettySize=auto;html=1;exitX=0.5;exitY=1;exitDx=0;exitDy=0;" parent="WIyWlLk6GJQsqaUBKTNV-1" source="95srwG0zsuO4FYz2OOs8-90" target="95srwG0zsuO4FYz2OOs8-109" edge="1">
          <mxGeometry relative="1" as="geometry" />
        </mxCell>
        <mxCell id="95srwG0zsuO4FYz2OOs8-90" value="确认兑换接口" style="rounded=0;whiteSpace=wrap;html=1;fillColor=#ffffff;align=center;" parent="WIyWlLk6GJQsqaUBKTNV-1" vertex="1">
          <mxGeometry x="160" y="1260" width="120" height="30" as="geometry" />
        </mxCell>
        <mxCell id="95srwG0zsuO4FYz2OOs8-94" value="" style="edgeStyle=orthogonalEdgeStyle;rounded=0;orthogonalLoop=1;jettySize=auto;html=1;exitX=0.5;exitY=1;exitDx=0;exitDy=0;" parent="WIyWlLk6GJQsqaUBKTNV-1" source="95srwG0zsuO4FYz2OOs8-97" target="95srwG0zsuO4FYz2OOs8-99" edge="1">
          <mxGeometry relative="1" as="geometry" />
        </mxCell>
        <mxCell id="95srwG0zsuO4FYz2OOs8-95" value="Yes" style="edgeLabel;html=1;align=center;verticalAlign=middle;resizable=0;points=[];" parent="95srwG0zsuO4FYz2OOs8-94" vertex="1" connectable="0">
          <mxGeometry x="-0.0381" y="2" relative="1" as="geometry">
            <mxPoint x="-15" as="offset" />
          </mxGeometry>
        </mxCell>
        <mxCell id="95srwG0zsuO4FYz2OOs8-96" value="" style="edgeStyle=orthogonalEdgeStyle;rounded=0;orthogonalLoop=1;jettySize=auto;html=1;" parent="WIyWlLk6GJQsqaUBKTNV-1" source="95srwG0zsuO4FYz2OOs8-97" target="95srwG0zsuO4FYz2OOs8-110" edge="1">
          <mxGeometry relative="1" as="geometry" />
        </mxCell>
        <mxCell id="95srwG0zsuO4FYz2OOs8-97" value="可兑换学分&lt;br&gt;&amp;nbsp;&amp;gt;= &lt;br&gt;设置比例 * 兑换积分" style="rhombus;whiteSpace=wrap;html=1;" parent="WIyWlLk6GJQsqaUBKTNV-1" vertex="1">
          <mxGeometry x="465" y="1510" width="110" height="100" as="geometry" />
        </mxCell>
        <mxCell id="95srwG0zsuO4FYz2OOs8-98" value="" style="edgeStyle=orthogonalEdgeStyle;rounded=0;orthogonalLoop=1;jettySize=auto;html=1;" parent="WIyWlLk6GJQsqaUBKTNV-1" source="95srwG0zsuO4FYz2OOs8-99" target="95srwG0zsuO4FYz2OOs8-100" edge="1">
          <mxGeometry relative="1" as="geometry" />
        </mxCell>
        <mxCell id="95srwG0zsuO4FYz2OOs8-99" value="调用产品接口添加等级积分" style="whiteSpace=wrap;html=1;" parent="WIyWlLk6GJQsqaUBKTNV-1" vertex="1">
          <mxGeometry x="435" y="1670" width="170" height="60" as="geometry" />
        </mxCell>
        <mxCell id="95srwG0zsuO4FYz2OOs8-100" value="记录学分积分兑换明细表&lt;br&gt;更新兑换前兑换后学分&lt;br&gt;解锁，表示处理结束" style="whiteSpace=wrap;html=1;" parent="WIyWlLk6GJQsqaUBKTNV-1" vertex="1">
          <mxGeometry x="430" y="1780" width="180" height="70" as="geometry" />
        </mxCell>
        <mxCell id="95srwG0zsuO4FYz2OOs8-105" style="edgeStyle=orthogonalEdgeStyle;rounded=0;orthogonalLoop=1;jettySize=auto;html=1;exitX=0.5;exitY=1;exitDx=0;exitDy=0;" parent="WIyWlLk6GJQsqaUBKTNV-1" source="95srwG0zsuO4FYz2OOs8-106" target="95srwG0zsuO4FYz2OOs8-97" edge="1">
          <mxGeometry relative="1" as="geometry" />
        </mxCell>
        <mxCell id="95srwG0zsuO4FYz2OOs8-106" value="计算当前可兑换学分" style="whiteSpace=wrap;html=1;rounded=1;" parent="WIyWlLk6GJQsqaUBKTNV-1" vertex="1">
          <mxGeometry x="445" y="1370" width="150" height="60" as="geometry" />
        </mxCell>
        <mxCell id="95srwG0zsuO4FYz2OOs8-107" value="当前可兑换学分 = 当前学分 - 上次兑换时记录的总学分 + 上次兑换后剩余学分" style="text;html=1;strokeColor=none;fillColor=none;align=center;verticalAlign=middle;whiteSpace=wrap;rounded=0;" parent="WIyWlLk6GJQsqaUBKTNV-1" vertex="1">
          <mxGeometry x="415" y="1340" width="450" height="30" as="geometry" />
        </mxCell>
        <mxCell id="95srwG0zsuO4FYz2OOs8-115" style="edgeStyle=orthogonalEdgeStyle;rounded=0;orthogonalLoop=1;jettySize=auto;html=1;exitX=1;exitY=0.5;exitDx=0;exitDy=0;" parent="WIyWlLk6GJQsqaUBKTNV-1" source="95srwG0zsuO4FYz2OOs8-109" target="95srwG0zsuO4FYz2OOs8-106" edge="1">
          <mxGeometry relative="1" as="geometry" />
        </mxCell>
        <mxCell id="95srwG0zsuO4FYz2OOs8-109" value="redis加锁" style="whiteSpace=wrap;html=1;rounded=1;" parent="WIyWlLk6GJQsqaUBKTNV-1" vertex="1">
          <mxGeometry x="160" y="1370" width="120" height="60" as="geometry" />
        </mxCell>
        <mxCell id="95srwG0zsuO4FYz2OOs8-110" value="解锁" style="whiteSpace=wrap;html=1;" parent="WIyWlLk6GJQsqaUBKTNV-1" vertex="1">
          <mxGeometry x="270" y="1530" width="120" height="60" as="geometry" />
        </mxCell>
      </root>
    </mxGraphModel>
  </diagram>
</mxfile>
